<svg width="100%" height="100%" id="svg" viewBox="0 0 1440 683" xmlns="http://www.w3.org/2000/svg"><path d="M 0,693 C 0,693 0,346 0,346 C 65.97526623153553,312.558570937822 131.95053246307106,279.11714187564405 196,298 C 260.04946753692894,316.88285812435595 322.17313637925116,388.09000343524565 388,430 C 453.82686362074884,471.90999656475435 523.3569220199245,484.52284438337335 603,458 C 682.6430779800755,431.47715561662665 772.3991755410512,365.8186190312607 836,359 C 899.6008244589488,352.1813809687393 937.0463758158708,404.2026794915837 995,375 C 1052.9536241841292,345.7973205084163 1131.4153211954654,235.37066300240468 1209,217 C 1286.5846788045346,198.62933699759532 1363.2923394022673,272.3146684987977 1440,346 C 1440,346 1440,693 1440,693 Z" stroke="none" stroke-width="0" fill="#7FDBFF" fill-opacity="1" class="path-0" style="transition-property: all; transition-timing-function: cubic-bezier(0.4, 0, 0.2, 1); transition-duration: 300ms; transition-delay: 150ms;" transform="rotate(-180 720 346.5)"></path></svg>